<svg width="355" height="91" viewBox="0 0 355 91" fill="none" xmlns="http://www.w3.org/2000/svg" >
<path d="M105.684 30.826H118.356V37H97.962V10.36H118.176V16.534H105.684V20.332H116.286V26.488H105.684V30.826ZM137.172 37.36C127.08 37.36 122.034 32.824 122.034 23.752C122.034 20.812 122.628 18.316 123.816 16.264C125.004 14.212 126.744 12.658 129.036 11.602C131.34 10.534 134.148 10 137.46 10C139.512 10 141.414 10.186 143.166 10.558V16.912C141.45 16.576 139.776 16.408 138.144 16.408C136.296 16.408 134.79 16.666 133.626 17.182C132.474 17.686 131.616 18.472 131.052 19.54C130.5 20.608 130.224 21.988 130.224 23.68C130.224 25.408 130.494 26.806 131.034 27.874C131.574 28.93 132.408 29.71 133.536 30.214C134.676 30.706 136.152 30.952 137.964 30.952C139.5 30.952 141.234 30.706 143.166 30.214V36.568C142.326 36.808 141.372 37 140.304 37.144C139.248 37.288 138.204 37.36 137.172 37.36ZM160.064 37.36C157.292 37.36 154.892 36.844 152.864 35.812C150.836 34.78 149.27 33.244 148.166 31.204C147.062 29.152 146.51 26.644 146.51 23.68C146.51 20.716 147.062 18.214 148.166 16.174C149.27 14.122 150.836 12.58 152.864 11.548C154.892 10.516 157.292 10 160.064 10C162.836 10 165.236 10.522 167.264 11.566C169.304 12.598 170.876 14.14 171.98 16.192C173.084 18.232 173.636 20.728 173.636 23.68C173.636 26.632 173.084 29.134 171.98 31.186C170.876 33.226 169.304 34.768 167.264 35.812C165.236 36.844 162.836 37.36 160.064 37.36ZM160.064 31.114C161.9 31.114 163.286 30.52 164.222 29.332C165.158 28.144 165.626 26.308 165.626 23.824C165.626 21.208 165.152 19.294 164.204 18.082C163.268 16.858 161.888 16.246 160.064 16.246C158.252 16.246 156.872 16.84 155.924 18.028C154.988 19.204 154.52 21.04 154.52 23.536C154.52 26.176 154.982 28.102 155.906 29.314C156.842 30.514 158.228 31.114 160.064 31.114ZM178.632 37V10.36H186.462V30.556H198.126V37H178.632ZM213.973 37.36C211.201 37.36 208.801 36.844 206.773 35.812C204.745 34.78 203.179 33.244 202.075 31.204C200.971 29.152 200.419 26.644 200.419 23.68C200.419 20.716 200.971 18.214 202.075 16.174C203.179 14.122 204.745 12.58 206.773 11.548C208.801 10.516 211.201 10 213.973 10C216.745 10 219.145 10.522 221.173 11.566C223.213 12.598 224.785 14.14 225.889 16.192C226.993 18.232 227.545 20.728 227.545 23.68C227.545 26.632 226.993 29.134 225.889 31.186C224.785 33.226 223.213 34.768 221.173 35.812C219.145 36.844 216.745 37.36 213.973 37.36ZM213.973 31.114C215.809 31.114 217.195 30.52 218.131 29.332C219.067 28.144 219.535 26.308 219.535 23.824C219.535 21.208 219.061 19.294 218.113 18.082C217.177 16.858 215.797 16.246 213.973 16.246C212.161 16.246 210.781 16.84 209.833 18.028C208.897 19.204 208.429 21.04 208.429 23.536C208.429 26.176 208.891 28.102 209.815 29.314C210.751 30.514 212.137 31.114 213.973 31.114ZM255.22 24.04V36.73C252.616 37.15 250.24 37.36 248.092 37.36C242.632 37.36 238.552 36.232 235.852 33.976C233.164 31.72 231.82 28.312 231.82 23.752C231.82 19.288 233.212 15.88 235.996 13.528C238.78 11.176 242.89 10 248.326 10C250.486 10 252.496 10.204 254.356 10.612V16.966C252.52 16.594 250.756 16.408 249.064 16.408C246.856 16.42 245.092 16.684 243.772 17.2C242.452 17.716 241.486 18.514 240.874 19.594C240.274 20.674 239.974 22.102 239.974 23.878C239.974 26.302 240.586 28.096 241.81 29.26C243.034 30.424 244.912 31.006 247.444 31.006H247.966V24.04H255.22ZM260.953 37V10.36H268.783V37H260.953ZM288.914 37.36C278.822 37.36 273.776 32.824 273.776 23.752C273.776 20.812 274.37 18.316 275.558 16.264C276.746 14.212 278.486 12.658 280.778 11.602C283.082 10.534 285.89 10 289.202 10C291.254 10 293.156 10.186 294.908 10.558V16.912C293.192 16.576 291.518 16.408 289.886 16.408C288.038 16.408 286.532 16.666 285.368 17.182C284.216 17.686 283.358 18.472 282.794 19.54C282.242 20.608 281.966 21.988 281.966 23.68C281.966 25.408 282.236 26.806 282.776 27.874C283.316 28.93 284.15 29.71 285.278 30.214C286.418 30.706 287.894 30.952 289.706 30.952C291.242 30.952 292.976 30.706 294.908 30.214V36.568C294.068 36.808 293.114 37 292.046 37.144C290.99 37.288 289.946 37.36 288.914 37.36ZM317.513 37L315.821 30.898H307.001L305.327 37H297.749L305.705 10.36H317.207L325.163 37H317.513ZM308.693 24.778H314.129L311.393 14.932L308.693 24.778ZM329.002 37V10.36H336.832V30.556H348.496V37H329.002ZM99.45 75.195C98.94 75.195 98.525 75.045 98.205 74.745C97.885 74.445 97.725 74.04 97.725 73.53C97.725 73.02 97.88 72.615 98.19 72.315C98.51 72.005 98.93 71.85 99.45 71.85C99.97 71.85 100.39 72.005 100.71 72.315C101.03 72.625 101.19 73.03 101.19 73.53C101.19 74.03 101.03 74.435 100.71 74.745C100.39 75.045 99.97 75.195 99.45 75.195ZM112.364 72.93H123.824V75H109.949V52.8H123.674V54.87H112.364V62.58H122.219V64.635H112.364V72.93ZM146.158 75L143.623 67.815H134.248L131.713 75H129.268L137.233 52.8H140.668L148.633 75H146.158ZM134.968 65.76H142.888L138.928 54.57L134.968 65.76ZM169.673 75L162.773 65.805C162.273 65.825 161.878 65.835 161.588 65.835C160.588 65.835 159.558 65.795 158.498 65.715V75H156.098V53.16C158.148 52.76 160.123 52.56 162.023 52.56C164.963 52.56 167.143 53.095 168.562 54.165C169.983 55.235 170.693 56.895 170.693 59.145C170.703 60.855 170.243 62.24 169.313 63.3C168.393 64.36 167.028 65.09 165.218 65.49L172.403 75H169.673ZM158.498 63.735C159.108 63.795 159.628 63.835 160.058 63.855C160.498 63.875 161.013 63.885 161.603 63.885C163.963 63.885 165.683 63.505 166.763 62.745C167.843 61.985 168.383 60.795 168.383 59.175C168.383 58.065 168.168 57.17 167.738 56.49C167.308 55.81 166.638 55.315 165.728 55.005C164.818 54.685 163.633 54.525 162.173 54.525C161.453 54.525 160.813 54.55 160.253 54.6C159.703 54.65 159.118 54.73 158.498 54.84V63.735ZM183.377 75V54.93H175.997V52.8H193.217V54.93H185.822V75H183.377ZM200.459 75V52.8H202.889V62.505H214.619V52.8H217.049V75H214.619V64.71H202.889V75H200.459Z" fill="#277A21"/>
<path d="M37.5 79.9875C16.822 79.9875 0 63.1656 0 42.4875C0 32.7163 3.61897 23.8561 10.47 16.8552C10.807 16.5058 11.3311 16.4434 11.7429 16.6805C12.1547 16.9176 12.3544 17.4168 12.2296 17.8785C12.0674 18.49 8.39851 33.0033 30.1622 42.0757C55.5324 52.6581 55.6697 71.2396 54.3095 75.6448C54.2221 75.9193 54.0225 76.1564 53.7604 76.2812C48.6689 78.7396 43.203 79.9875 37.5 79.9875ZM9.85857 20.6739C4.70466 26.8885 2.09651 34.2138 2.09651 42.5C2.09651 62.0175 17.9701 77.891 37.4875 77.891C42.7038 77.891 47.733 76.7804 52.4127 74.5965C53.4859 69.9168 52.475 53.6564 29.3511 44.0225C12.2421 36.8844 9.85857 26.0899 9.85857 20.6739Z" fill="#277A21"/>
<path d="M63.5815 68.9933C63.4193 68.9933 63.2696 68.9559 63.1198 68.881C62.708 68.6814 62.4834 68.2446 62.5333 67.7953C64.4052 53.7313 55.495 46.8677 39.4468 39.7671C16.485 29.609 20.5033 9.52995 20.5408 9.33028C20.6032 9.0183 20.8153 8.74376 21.1148 8.60649C25.9817 6.24792 31.6473 5 37.5 5C58.178 5 75 21.822 75 42.5C74.9875 52.3336 71.2063 61.6306 64.3428 68.6814C64.1431 68.881 63.8686 68.9933 63.5815 68.9933ZM22.5125 10.2662C22.0383 13.3361 20.6531 29.1473 40.3078 37.8577C58.228 45.7945 65.2538 53.3444 64.8919 64.9126C70.0707 58.5982 72.8785 50.7612 72.8785 42.5C72.8785 22.9825 57.005 7.10899 37.4875 7.10899C32.1589 7.09651 26.9925 8.19468 22.5125 10.2662Z" fill="#277A21"/>
<path d="M62.1714 77.0799C52.3128 77.0799 41.3686 72.8369 30.0874 64.6007C19.6423 56.9759 12.4792 48.5025 12.4043 48.4151C12.03 47.9659 12.0924 47.3045 12.5291 46.9301C12.9784 46.5557 13.6398 46.6181 14.0142 47.0549C14.2887 47.3794 42.0924 80.0125 68.4859 74.3095C69.0599 74.1847 69.609 74.5466 69.7338 75.1206C69.8586 75.6947 69.4967 76.2438 68.9226 76.3686C66.7388 76.8552 64.48 77.0799 62.1714 77.0799Z" fill="#277A21"/>
<path d="M24.7837 64.3136C19.3553 64.3136 16.198 61.1689 16.0358 60.9942C15.624 60.5824 15.6365 59.9085 16.0483 59.5091C16.4601 59.0973 17.1215 59.1098 17.5333 59.5216C17.708 59.6963 21.614 63.5025 28.203 61.7429C28.6772 60.9443 30.0998 57.6373 25.9193 50.9734C25.6073 50.4867 25.7571 49.8378 26.2563 49.5258C26.7429 49.2138 27.3919 49.3636 27.7038 49.8627C33.5067 59.0973 29.7629 63.2155 29.6007 63.3902C29.4759 63.5274 29.3137 63.6273 29.1389 63.6772C27.5666 64.1265 26.1065 64.3136 24.7837 64.3136Z" fill="#277A21"/>
<path d="M37.8619 73.386C32.5707 73.386 26.5932 70.391 26.2562 70.2163C25.7446 69.9542 25.5325 69.3178 25.7945 68.8062C26.0566 68.2945 26.693 68.0824 27.2047 68.3444C30.0125 69.7671 38.1115 72.8993 41.7554 70.2662C42.2296 69.9293 42.8785 70.0291 43.228 70.5033C43.5649 70.9775 43.4651 71.6265 42.9909 71.9759C41.5558 72.9992 39.7587 73.386 37.8619 73.386Z" fill="#277A21"/>
<path d="M43.5649 72.7246C43.3028 72.7246 43.0533 72.6248 42.8411 72.4376C42.4168 72.0507 42.3919 71.3893 42.7787 70.9651C42.8661 70.8527 45.9484 66.822 38.2862 55.99C37.9493 55.5158 38.0616 54.8544 38.5358 54.5299C39.01 54.193 39.6589 54.3053 39.9959 54.7795C43.6273 59.921 45.5117 64.3636 45.5741 67.995C45.624 70.9151 44.4509 72.2504 44.3261 72.3877C44.1265 72.6123 43.8519 72.7246 43.5649 72.7246Z" fill="#277A21"/>
<path d="M62.0092 38.1947C61.7097 38.1947 61.4101 38.0699 61.198 37.8203C60.9235 37.4834 33.2571 4.75041 6.85108 10.3286C6.28952 10.4409 5.72796 10.079 5.60316 9.51747C5.47837 8.94342 5.85275 8.39434 6.41431 8.26955C17.8952 5.84858 31.3103 9.9792 45.1997 20.2121C55.6073 27.8744 62.7454 36.3852 62.8203 36.4725C63.1947 36.9218 63.1323 37.5832 62.683 37.9576C62.4834 38.1198 62.2463 38.1947 62.0092 38.1947Z" fill="#277A21"/>
<path d="M48.3943 35.4742C48.0449 35.4742 47.6955 35.2995 47.4958 34.975C41.7429 25.7155 45.4991 21.6098 45.6614 21.4476C45.7862 21.3103 45.9484 21.2105 46.1356 21.1606C54.2096 18.8394 59.0266 23.6814 59.2263 23.881C59.6256 24.2928 59.6256 24.9667 59.2013 25.3661C58.7895 25.7654 58.1281 25.7654 57.7163 25.3411C57.5416 25.1664 53.6605 21.3353 47.0466 23.0824C46.5599 23.8686 45.1248 27.1755 49.2803 33.8644C49.5923 34.3636 49.4301 35 48.9434 35.312C48.7812 35.4118 48.5815 35.4742 48.3943 35.4742Z" fill="#277A21"/>
<path d="M48.5691 16.6057C48.4068 16.6057 48.2446 16.5682 48.0949 16.4933C45.287 15.0582 37.213 11.8885 33.5441 14.5092C33.0699 14.8461 32.421 14.7338 32.0716 14.272C31.7346 13.7978 31.8469 13.1489 32.3087 12.7995C37.7496 8.90599 48.5815 14.3968 49.0433 14.6339C49.5549 14.896 49.7671 15.5325 49.4925 16.0441C49.3178 16.3935 48.9559 16.6057 48.5691 16.6057Z" fill="#277A21"/>
<path d="M36.0898 30.4451C35.7529 30.4451 35.4284 30.2829 35.2288 29.9958C31.6098 24.8419 29.7629 20.3869 29.713 16.7554C29.6755 13.8353 30.8486 12.5125 30.9859 12.3627C31.3852 11.9384 32.0466 11.926 32.4709 12.3253C32.8827 12.7246 32.9077 13.3735 32.5333 13.7978C32.4459 13.9102 29.3386 17.9285 36.9634 28.7978C37.3003 29.272 37.1755 29.9334 36.7013 30.2579C36.5017 30.3827 36.302 30.4451 36.0898 30.4451Z" fill="#277A21"/>
</svg>
