<svg
        width="329"
        height="331"
        viewBox="0 0 329 331"
        fill="none"
        xmlns="http://www.w3.org/2000/svg"
>
    <path
            d="M195.19 267.172c-5.871-1.609-11.839-2.925-17.585-4.899-9.067-3.112-17.327-7.87-25.31-13.174-2.386-1.585-3.251-4.073-4.861-6.098-2.011-2.531-3.758-5.277-5.594-7.952-1.056-1.538-1.945-3.026-1.851-5.132.136-3.143-1.189-5.92-3.306-8.291-4.744-5.316-9.168-10.962-14.306-15.865-3.512-3.353-5.399-7.36-7.071-11.589-3.13-7.924-7.262-15.529-8.249-24.186-.732-6.429-3.227-12.64-2.225-19.295.541-3.583.561-7.251 1.228-10.803.955-5.081 2.015-10.171 3.535-15.105 1.54-5.004 3.547-9.879 5.621-14.692 1.275-2.964 2.791-5.908 4.701-8.49 1.649-2.227 3.941-4.018 6.077-5.845 2.187-1.869 4.46-3.656 6.845-5.257.788-.525 2.137-.144 3.061-.557 1.227-.545 2.21-1.647 3.442-2.169 1.231-.521 2.639-.63 3.972-.919-.659.884-1.322 1.772-2.269 3.038.78.374 1.813 1.289 2.366 1.059 1.396-.58 3.36-1.48 3.649-2.617.405-1.593 1.154-2.776 2.046-3.984 1.029-1.39 2.008-3.656 3.255-3.835 1.552-.222 3.356 1.296 5.044 2.075.172.078.312.23.464.347-2.198 1.433-4.397 2.862-6.552 4.268l1.563 3.995c.904-.814 1.723-1.359 2.288-2.099 1.228-1.62 2.327-3.337 3.477-5.015.725-.538 1.411-1.141 2.183-1.597 2.308-1.367 4.264-3.022 5.863-5.253 1.243-1.733 3.044-3.073 4.634-4.548.924-.857 1.922-1.632 2.889-2.442l-.304-.401h-2.627c.943-.69 1.438-1.114 1.988-1.44 1.165-.698 2.436-1.243 3.508-2.057.577-.436.834-1.297 1.24-1.967-.749-.054-1.591-.358-2.234-.124-5.212 1.888-10.389 3.874-15.577 5.83l-.464-1.282c1.365-1.079 2.908-1.994 4.062-3.263 4.553-5.012 10.435-5.662 16.454-5.456-.16.475-.312.927-.468 1.379.534.054 1.267.358 1.571.12 2.503-1.966 5.684-1.468 8.447-2.426.39-.112.784-.23 1.174-.342.635-.063 1.274-.121 1.91-.183.039.16.082.319.121.479-1.544.802-3.021 1.791-4.647 2.344-1.169.397-2.549.148-3.816.315-.702.09-1.493.285-2.027.705-.815.643-1.396 1.573-2.164 2.29-.959.896-.826 1.64.32 2.017.682.226 1.746.304 2.234-.074 2.182-1.682 4.755-2.165 7.316-2.741.367-.082.71-.308 1.041-.51 2.624-1.605 5.157-3.38 7.878-4.79 3.645-1.889 3.707-1.772 1.98-5.34.987.472 2.819.94 2.819 1.41 0 2.123 1.333 1.543 2.218 1.212 1.302-.487 1.988-.012 2.838 1.121-.823.397-1.493.736-2.172 1.052-1.411.65-2.861 1.23-4.233 1.95-2.581 1.352-5.153 2.73-7.668 4.202-2.95 1.73-5.991 3.369-8.681 5.452-1.13.876-1.454 2.784-2.229 4.404.709 0 .916.055 1.083-.011.421-.16.834-.355 1.232-.569 6.401-3.462 12.961-6.507 20.181-7.882.682-.128 1.426-.416 1.937-.864a558.036 558.036 0 0010.509-9.381c.347-.316.332-1.028.484-1.554-.538-.148-1.068-.397-1.61-.424-1.797-.09-3.602-.098-5.399-.14-1.598-.226-3.197-.448-4.795-.674-2.167-.14-4.335-.277-6.502-.417-2.28.273-4.565.545-6.693.798.557-3.04 3.06-2.979 5.223-3.47.254-.058.515-.077.768-.131 2.448-.522 2.511-.631 1.603-2.886.315-.074.612-.175.919-.214 7.613-.962 15.234-1.032 22.898-.58 6.108.362 11.842 1.553 17 5.408.042 1.001-1.513 2.606.487 3.408-2.865 2.262-6.222 1.23-9.457 1.137-.097.222-.191.448-.288.67l4.911 4.034-.776.911c1.322.95 2.526 1.815 3.559 2.555-1.278 1.9-2.561 3.804-3.933 5.845-2.666-1.367-5.449-2.734-8.166-4.217-1.918-1.048-2.822-1.071-3.82.84-2.507 4.818-4.861 9.713-7.13 14.642-.37.803.008 1.951.039 2.94.904-.186 1.813-.373 2.721-.552.121-.024.253.015.378.027 2.175 2.648 2.432 4.774.682 5.397-.308-.806-.612-1.612-.932-2.442-1.641.861-1.707.861-1.676 2.645.043 2.282-.795 4.17-2.303 5.81-3.598 3.905-7.766 6.892-13.114 7.866-1.454.265-1.653.981-.877 1.978 1.688 2.173 1.489 4.505 1.142 7.033-.28 2.048-1.29 2.998-3.087 3.703-1.661.646-2.354-.471-3.321-1.285-2.156-1.815-4.222-1.453-5.122 1.184-1.189 3.473-2.086 7.06-2.971 10.627-.752 3.018-.265 3.419 2.834 3.22.624-.039 1.602.507 1.895 1.059 1.193 2.282 3.461 2.983 5.367 1.25 1.224-1.109 2.164-2.562 3.115-3.94 1.934-2.808 3.239-6.11 6.397-7.94.257-.148.534-.483.565-.756.289-2.625 2.199-3.026 4.304-3.259 1.415-.16 2.814-.573 4.229-.608.721-.019 1.715.335 2.148.869a290.819 290.819 0 018.268 10.814c.37.51.121 1.468.16 2.219-1.314.168-2.628.331-4.335.545.635.826.974 1.352 1.392 1.799 2.034 2.166 2.697 2.053 3.753-.615.215-.541.414-1.09.62-1.631.659-1.92 1.314-3.84 1.973-5.76.226-.288-.059-.728-.441-1.055a41.198 41.198 0 00-2.44-1.916c-1.197-.88-2.631-1.546-3.567-2.644-.904-1.063-1.618-2.504-1.851-3.871-.324-1.908.456-2.336 2.249-1.526 3.317 1.495 5.656 4.022 7.472 7.102 2.265 3.84 4.495 7.703 6.869 11.473.635 1.008 1.738 1.717 2.616 2.554.343-1.168.409-2.126.873-2.819.709-1.067.51-1.873-.125-2.831-2.16-3.26-2.14-3.271.659-5.744.752.506 1.695.872 2.198 1.558.503.689.718 1.682.799 2.57.328 3.582 2.421 5.467 5.781 6.09.737.136 1.563-.167 2.343-.292.616-.097 1.24-.37 1.84-.323 1.622.124 3.185.405 4.678-.701.28-.207 1.754.428 1.855.864.593 2.555 1.353 5.176 1.279 7.754-.141 4.813-.378 4.704-5.216 5.459-4.662.728-9.176.218-13.655-1.063-.561-.16-1.123-.335-1.692-.46-4.229-.919-5.293-.794-5.765 3.583-.125 1.149-.858 1.581-1.918 1.351-1.138-.249-2.323-.467-3.356-.969-3.906-1.893-7.761-3.902-11.64-5.857-1.505-.759-1.945-1.896-1.551-3.528.241-.993.241-2.056.269-3.092.085-3.197-.538-4.066-3.758-3.933-2.947.121-5.91.65-8.794 1.32-2.772.643-5.434 1.737-8.167 2.547-2.144.634-4.221.603-6.054-.974-1.091-.942-2.066-.911-3.235.144-1.532 1.383-3.298 2.512-4.978 3.723-2.206 1.589-3.407 3.618-3.294 6.445.031.767-.51 1.717-1.076 2.313-1.021 1.075-2.194 2.037-3.414 2.885-6.039 4.194-9.282 10.363-12.135 16.839-2.947 6.686-5.528 13.458-5.153 20.946.163 3.283 1.231 6.211 3.835 8.423.374.319.745.756.889 1.211 1.485 4.685 4.943 7.956 8.104 11.453.639.705 1.127 1.573 1.563 2.426.725 1.413 1.727 2.099 3.403 2.048 3.746-.109 7.508.09 11.242-.132 1.899-.113 3.762-.853 5.633-1.344 1.255-.327 2.479-.782 3.746-1.047 3.481-.728 5.376.311 6.76 3.613 1.161 2.769 1.333 2.987 4.19 2.271 4.514-1.13 6.362.533 6.081 5.864-.113 2.165-.885 4.303-1.43 6.433-.41 1.601-.301 2.668 1.45 3.634 4.9 2.714 7.02 7.659 5.558 13.064-.756 2.785-1.937 5.511-3.325 8.046-.834 1.526-.799 2.725-.23 4.178.3.763.417 1.6.616 2.403.48 1.616.963 3.228 1.536 5.159-1.625 0-3.212.09-4.783-.019-3.391-.23-6.771-.604-10.162-.806-.628-.039-1.283.452-1.926.701.055.284.105.568.16.853 5.286.899 10.79.167 16.033 1.514-.172.308-.328.44-.491.448-4.495.273-8.989.553-13.488.771-.588.027-1.403-.089-1.762-.467-2.343-2.481-4.947-2.831-7.917-.958-.3.21-.721.241-1.091.347zm8.665-167.958c1.871-.109 3.594-.132 5.298-.33 1.512-.176 2.822-3.019 2.354-4.428-.931-2.8-2.678-5.472-1.302-8.704.23-.537-.624-1.635-1.161-2.332-.156-.207-1.104-.11-1.404.163-.553.503-1.224 1.215-1.267 1.881-.156 2.415-1.886 3.131-3.668 4.046-1.009.518-1.855 1.484-2.565 2.407-.569.743-.85 1.717-1.196 2.613-.149.381-.312.981-.133 1.203.211.257.924.413 1.197.25 1.341-.819 2.771-1.597 3.847-2.703.803-.826 1.111-2.13 1.637-3.217 2.074.993 2.051 1.172.772 2.843-1.403 1.838-2.487 3.859-2.409 6.308zm-.401-25.627c2.526.05 4.864-1.421 4.65-2.734-.351-2.145-2.58-.237-3.446-1.433-.772 1.001-1.618 1.963-2.241 3.05-.098.163.842.918 1.037 1.117zm26.682-15.463c.729 2.998 4.834 6.078 7.371 5.183-3.383-.756-3.874-4.646-7.371-5.183zm-9.792 66.632c-.136-.097-.273-.191-.409-.288.039-.253.187-.561.093-.752-.323-.677-.725-1.316-1.099-1.974-.46.58-.947 1.141-1.36 1.752-.121.179-.078.51-.035.756.183 1.032-.605 2.628 1.052 2.796.503.054 1.166-1.48 1.758-2.29zm5.403-70.534l-.129.56 6.272.935c.032-.226.063-.448.09-.674-2.074-.276-4.155-.549-6.233-.821zm-6.553 62.862c-.62 1.021-1.115 1.496-1.146 1.998-.027.413.499.865.78 1.297.355-.444.877-.845 1.009-1.347.102-.394-.28-.916-.643-1.948zm2.986-61.554c-.284.012-.569.02-.854.031.032.686-.077 1.422.16 2.025.106.273.897.28 1.731.503-.483-1.188-.76-1.873-1.037-2.559zM164.578.44c-1.587 1.85-3.197 3.68-4.76 5.55-5.972 7.137-11.694 14.5-15.249 23.158-2.358 5.74-3.82 11.841-5.886 17.71-2.522 7.15-5.091 14.287-7.945 21.309-3.418 8.407-9.187 15.19-15.947 21.09-4.787 4.175-9.85 8.034-14.84 11.971-1.921 1.514-2.226 1.468-3.722-.553-7.843-10.6-13.425-22.064-13.172-35.635.152-8.143 3.266-15.421 7.067-22.423 7.594-13.987 19.631-22.874 33.894-29.143 12.217-5.366 24.96-9.198 37.769-12.835.842-.242 1.719-.366 2.58-.546.067.113.141.23.211.347zM98.945 97.707c2.527-8.508 4.858-17.075 7.621-25.506 4.491-13.704 10.728-26.613 19.436-38.143 4.082-5.401 8.993-10.175 13.523-15.242.565-.634 1.091-1.3 1.637-1.954l-.409-.518c-.562.28-1.22.451-1.669.856-3.605 3.256-7.254 6.472-10.739 9.852-11.492 11.134-20.325 24.012-25.649 39.199-3.532 10.078-5.275 20.416-5.138 31.086.062 1.215.12 2.43.183 3.645l.503.012c.23-1.094.464-2.189.701-3.287z"
            fill="#277A21"
    />
    <path
            d="M195.19 267.172c.37-.11.791-.137 1.107-.335 2.966-1.873 5.57-1.523 7.917.958.358.381 1.169.498 1.762.467 4.498-.218 8.993-.499 13.487-.771.164-.012.316-.144.491-.448-5.243-1.347-10.743-.615-16.033-1.515-.054-.284-.105-.568-.159-.853.643-.245 1.298-.736 1.925-.701 3.392.203 6.771.577 10.163.807 1.574.105 3.161.019 4.783.019-.573-1.931-1.057-3.544-1.536-5.16 1.337.421 1.812 1.305 2.019 2.718.261 1.772.924 3.505 1.614 5.172.144.35 1.193.549 1.773.463 7.656-1.094 14.817-3.765 21.787-6.998 7.664-3.555 14.481-8.255 20.508-14.248 3.29-3.275 5.196-7.267 5.699-11.414.752-6.18 4.378-9.739 8.587-13.582 3.98-3.638 7.391-7.995 10.557-12.392 3.652-5.066 6.143-10.802 7.753-16.881.14-.529.663-.958.811-1.491.202-.72.218-1.491.315-2.243-.756.078-1.598-.031-2.245.273-.896.42-1.567 1.39-2.479 1.705-2.452.849-4.978 1.476-7.531 2.208-1.033-1.269-.347-2.231.507-3.033 1.793-1.687 3.781-3.178 5.476-4.95 5.158-5.393 10.362-10.775 12.346-18.326.99-3.773 1.259-7.535.218-11.327-.148-.542-.355-1.18-.752-1.523-1.536-1.336-3.158-2.574-4.916-3.98a2789.03 2789.03 0 01-3.769 5.117c-.343-.144-.546-.179-.562-.245-.577-2.983-3.582-3.77-5.219-5.783-.94-1.157-2.035-2.255-2.651-3.575-.347-.744-.058-1.986.366-2.776.149-.277 1.708-.129 2.359.26 1.267.76 2.374 1.8 3.5 2.777 1.563 1.359 3.189 2.251 5.298 1.168.304-.156.83-.218 1.099-.062 3.243 1.889 6.475.319 9.671-.078 2.175-.269 3.474.074 4.475 2.013.476.923.835 1.916 1.388 2.785 1.29 2.032 2.448 1.962 3.68-.413 1.13 8.446 2.233 16.659 3.333 24.875.323.024.651.043.974.067.265-.966.659-1.916.776-2.898 1.267-10.634 2.043-21.293 1.201-32.009-.032-.382-.004-.767.156-1.153 2.093 12.306 2.416 24.603-.375 37.181a305.34 305.34 0 00-.308-1.846c-.101.144-.202.218-.206.3-1.037 19.257-9.71 35.402-20.988 50.336-11.955 15.833-27.396 27.34-45.685 34.984-11.465 4.794-23.424 7.493-35.859 8.326-8.744.588-17.362-.132-25.985-1.308-.889-.117-1.75-.437-2.623-.662zm63.648-9.074l.916 1.196c1.875-.919 3.89-1.636 5.594-2.804 3.079-2.118 6.124-4.342 8.903-6.834 2.651-2.38 4.962-5.137 7.352-7.788.284-.316.14-1.017.195-1.539-.565.141-1.275.113-1.669.452-1.122.962-2.03 2.177-3.173 3.1-3.009 2.43-6.443 4.439-9.039 7.239-1.93 2.079-3.965 3.769-6.339 5.187-.939.553-1.828 1.188-2.74 1.791z"
            fill="#277A21"
    />
    <path
            d="M267.371 267.46c-12.33 6.032-25.283 10.187-38.868 12.009-7.629 1.024-15.386 1.659-23.073 1.554-20.5-.284-39.807-5.44-57.54-15.865-11.675-6.865-21.833-15.541-30.518-25.997-13.71-16.511-22.473-35.355-26.14-56.375-1.54-8.832-6.32-15.319-11.976-21.511-3.266-3.579-6.985-6.745-10.517-10.113 2.195.3 7.067 3.022 10.93 6.554 3.138 2.87 5.972 6.067 8.596 8.761.553-9.704.892-19.992 1.789-30.23.9-10.272 3.512-20.233 7.06-29.973-.305 2.473-.578 4.954-.917 7.423-2.264 16.518-2.736 33.065-.756 49.65 2.355 19.723 8.237 38.279 18.793 55.171 18.22 29.152 44.411 46.936 78.114 53.463 21.178 4.104 42.255 2.601 63.13-2.489 3.586-.872 7.145-1.845 10.72-2.768.393.245.783.49 1.173.736zM.133 112.633c6.958-1.183 13.896-2.511 20.882-3.512 7.098-1.02 14.251-1.297 21.24.759 9.465 2.785 17.57 7.629 22.196 16.702 1.552 3.045 2.437 6.609 2.803 10.024.41 3.824-.09 7.749-.25 11.631-.054 1.367-.608 2.006-2.245 1.764-7.932-1.168-15.95-2.356-22.753-6.826-4.842-3.181-9.192-7.161-13.51-11.063-4.612-4.167-8.487-9.202-14.124-12.126-4.022-2.088-8.205-3.875-12.322-5.783-.631-.292-1.282-.534-1.925-.798.004-.261.008-.515.008-.772zm20.656 2.898c-.168.331-.34.662-.507.993 8.763 2.632 16.968 6.425 23.954 12.235 6.923 5.756 13.444 11.986 20.09 17.964.32-1.422-3.188-7.193-7.086-11.395-9.952-10.724-22.356-16.849-36.451-19.797z"
            fill="#277A21"
    />
    <path
            d="M267.371 267.46c-.39-.246-.78-.491-1.173-.732 1.625-.538 3.247-1.079 4.872-1.616l.269.634c-1.321.573-2.643 1.141-3.968 1.714zM160.212 70.094c-1.957.783-3.914 1.566-5.87 2.344-.113-.222-.23-.444-.343-.666 1.917-.985 3.835-1.974 5.753-2.959.152.428.308.857.46 1.281zM225.747 54.222c2.078.272 4.155.545 6.233.821-.031.226-.062.448-.09.674l-6.272-.935.129-.56zM212.443 53.322c-.92.269-1.867.467-2.756.818-1.532.6-2.179.124-2.039-1.492 1.598.222 3.197.448 4.795.674zM189.814 59.171c.815-.903 1.634-1.807 2.448-2.71.62.128 1.24.26 1.86.39-1.045.657-2.09 1.32-3.13 1.977-.394.117-.784.23-1.178.343zM222.18 55.53c.277.685.554 1.37 1.037 2.559-.834-.222-1.625-.23-1.731-.503-.233-.603-.128-1.343-.159-2.025.28-.008.565-.02.853-.03zM97.554 97.341c.464.121.928.246 1.388.366-.234 1.099-.472 2.193-.706 3.291l-.503-.012c-.058-1.215-.117-2.43-.179-3.645z"
            fill="#277A21"
    />
    <path
            d="M194.122 56.854c-.62-.128-1.24-.26-1.86-.39-.908-.24-1.812-.478-2.721-.72a19.44 19.44 0 00-.023-.276c2.565-.183 5.134-.362 7.699-.545.027.09.058.175.086.264-1.061.553-2.121 1.11-3.181 1.667zM234.412 70.748c3.758.156 3.891.32 2.402 2.859l-2.402-2.859z"
            fill="#277A21"
    />
    <path
            d="M214.567 331c28.943 0 52.406-3.138 52.406-7.009 0-3.872-23.463-7.01-52.406-7.01-28.943 0-52.406 3.138-52.406 7.01 0 3.871 23.463 7.009 52.406 7.009z"
            fill="#E6E6E6"
    />
</svg>