<svg id="Layer_1" xmlns="http://www.w3.org/2000/svg" xmlns:xlink="http://www.w3.org/1999/xlink" viewBox="0 0 909 706.03" preserveAspectRatio="none"><defs><linearGradient id="linear-gradient" x1="688.5" y1="142.17" x2="50.48" y2="691.43" gradientUnits="userSpaceOnUse"><stop offset="0" stop-color="#f8f8f8"/><stop offset="1" stop-color="#f8f8f8"/></linearGradient></defs><title>bg</title><path d="M-13.5,648.5" style="fill:#fff"/><path d="M5.5,651.5" style="fill:#fff"/><path d="M2,785" style="fill:none;stroke:#000;stroke-miterlimit:10"/><path d="M.5,648.5" style="fill:#fff"/><path d="M-7.5,654.5" style="fill:#fff"/><path d="M943.5,696.5" style="fill:#fff"/><path d="M2.19,652a78.19,78.19,0,0,0,10.47,7,267.35,267.35,0,0,0,26.44,14c56,25.14,118.49,32,179.34,32.47,17.91.12,35.79-1.14,53.67-1.14,91.4-4.14,182.35-15.47,272.65-30.23,4.46-.74,8.92-1.45,13.39-2.17,31.28-5,62.62-9.8,94.05-13.82,15.49-1.93,31-3.91,46.59-5.14,38.9-3.09,78.05-1.13,116.69,4,24.83,3.28,50,8.29,73,18.54a118.41,118.41,0,0,1,20,11.19V.5H.5V650.6C1,651,1.52,651.47,2.19,652Z" style="stroke:#f8f8f8;stroke-miterlimit:10;fill:url(#linear-gradient)"/></svg>